<svg width="27" height="27" viewBox="0 0 27 27" fill="none" xmlns="http://www.w3.org/2000/svg">
<path d="M23.4375 0H2.8125C1.23047 0 0 1.28906 0 2.8125V23.4375C0 25.0195 1.23047 26.25 2.8125 26.25H10.8398V17.3438H7.14844V13.125H10.8398V9.96094C10.8398 6.32812 13.0078 4.27734 16.2891 4.27734C17.9297 4.27734 19.5703 4.57031 19.5703 4.57031V8.14453H17.7539C15.9375 8.14453 15.3516 9.25781 15.3516 10.4297V13.125H19.3945L18.75 17.3438H15.3516V26.25H23.4375C24.9609 26.25 26.25 25.0195 26.25 23.4375V2.8125C26.25 1.28906 24.9609 0 23.4375 0Z" fill="#757575"/>
</svg>
