<svg width="27" height="27" viewBox="0 0 27 27" fill="none" xmlns="http://www.w3.org/2000/svg">
<path d="M13.125 10.0195C11.3672 10.0195 9.96094 11.4258 9.96094 13.125C9.96094 14.8828 11.3672 16.2891 13.125 16.2891C14.8242 16.2891 16.2305 14.8828 16.2305 13.125C16.2305 11.4258 14.8242 10.0195 13.125 10.0195ZM20.3906 7.61719C20.0977 6.79688 19.4531 6.15234 18.6328 5.85938C17.4023 5.33203 14.4727 5.44922 13.125 5.44922C11.7188 5.44922 8.78906 5.33203 7.55859 5.85938C6.73828 6.15234 6.09375 6.79688 5.80078 7.61719C5.33203 8.84766 5.39062 11.7773 5.39062 13.125C5.39062 14.5312 5.33203 17.4609 5.80078 18.6914C6.09375 19.5117 6.73828 20.1562 7.55859 20.4492C8.78906 20.9766 11.7188 20.8594 13.125 20.8594C14.4727 20.8594 17.4023 20.9766 18.6328 20.4492C19.4531 20.1562 20.0977 19.5117 20.3906 18.6914C20.918 17.4609 20.8008 14.5312 20.8008 13.125C20.8008 11.7773 20.918 8.84766 20.3906 7.61719ZM13.125 17.9297C10.4297 17.9297 8.32031 15.8203 8.32031 13.125C8.32031 10.4883 10.4297 8.32031 13.125 8.32031C15.7617 8.32031 17.9297 10.4883 17.9297 13.125V13.1836C17.9297 15.8203 15.7617 17.9883 13.125 17.9883V17.9297ZM18.1055 9.25781C17.4609 9.25781 16.9922 8.78906 16.9922 8.14453C16.9922 7.5 17.4609 7.03125 18.1055 7.03125C18.6914 7.03125 19.2188 7.5 19.2188 8.14453C19.2188 8.78906 18.6914 9.25781 18.1055 9.25781ZM23.4375 0H2.8125C1.23047 0 0 1.28906 0 2.8125V23.4375C0 25.0195 1.23047 26.25 2.8125 26.25H23.4375C24.9609 26.25 26.25 25.0195 26.25 23.4375V2.8125C26.25 1.28906 24.9609 0 23.4375 0ZM22.3828 16.9922C22.3242 18.5156 21.9727 19.8633 20.918 20.918C19.8047 22.0312 18.457 22.3828 16.9922 22.4414C15.4102 22.5586 10.7812 22.5586 9.25781 22.4414C7.73438 22.3828 6.38672 22.0312 5.33203 20.918C4.21875 19.8633 3.86719 18.5156 3.80859 16.9922C3.69141 15.4688 3.69141 10.8398 3.80859 9.25781C3.86719 7.79297 4.21875 6.44531 5.33203 5.33203C6.38672 4.27734 7.73438 3.92578 9.25781 3.86719C10.7812 3.75 15.4102 3.75 16.9922 3.86719C18.457 3.92578 19.8047 4.27734 20.918 5.39062C21.9727 6.44531 22.3242 7.79297 22.3828 9.31641C22.5 10.8398 22.5 15.4688 22.3828 16.9922Z" fill="#757575"/>
</svg>
