<svg width="27" height="27" viewBox="0 0 27 27" fill="none" xmlns="http://www.w3.org/2000/svg">
<path d="M24.375 0H1.81641C0.820312 0 0 0.878906 0 1.93359V24.375C0 25.4297 0.820312 26.25 1.81641 26.25H24.375C25.3711 26.25 26.25 25.4297 26.25 24.375V1.93359C26.25 0.878906 25.3711 0 24.375 0ZM7.91016 22.5H4.04297V10.0195H7.91016V22.5ZM5.97656 8.26172C4.6875 8.26172 3.69141 7.26562 3.69141 6.03516C3.69141 4.80469 4.6875 3.75 5.97656 3.75C7.20703 3.75 8.20312 4.80469 8.20312 6.03516C8.20312 7.26562 7.20703 8.26172 5.97656 8.26172ZM22.5 22.5H18.5742V16.4062C18.5742 15 18.5742 13.125 16.582 13.125C14.5312 13.125 14.2383 14.707 14.2383 16.3477V22.5H10.3711V10.0195H14.0625V11.7188H14.1211C14.6484 10.7227 15.9375 9.66797 17.8125 9.66797C21.7383 9.66797 22.5 12.3047 22.5 15.6445V22.5Z" fill="#757575"/>
</svg>
