<svg width="27" height="27" viewBox="0 0 27 27" fill="none" xmlns="http://www.w3.org/2000/svg">
<path d="M23.4375 0H2.8125C1.23047 0 0 1.28906 0 2.8125V23.4375C0 25.0195 1.23047 26.25 2.8125 26.25H23.4375C24.9609 26.25 26.25 25.0195 26.25 23.4375V2.8125C26.25 1.28906 24.9609 0 23.4375 0ZM20.5664 9.31641C20.5664 9.49219 20.5664 9.66797 20.5664 9.84375C20.5664 14.8828 16.6992 20.7422 9.60938 20.7422C7.44141 20.7422 5.44922 20.1562 3.75 19.043C4.04297 19.1016 4.33594 19.1016 4.62891 19.1016C6.44531 19.1016 8.08594 18.457 9.43359 17.4609C7.73438 17.4023 6.32812 16.2891 5.80078 14.7656C6.44531 14.8828 6.97266 14.8828 7.55859 14.707C5.80078 14.3555 4.51172 12.832 4.51172 10.957V10.8984C4.98047 11.1914 5.56641 11.3672 6.21094 11.3672C5.15625 10.6641 4.51172 9.49219 4.51172 8.20312C4.51172 7.44141 4.6875 6.79688 5.03906 6.21094C6.91406 8.55469 9.78516 10.0781 12.9492 10.2539C12.4219 7.67578 14.3555 5.50781 16.6992 5.50781C17.8125 5.50781 18.8086 5.97656 19.5117 6.73828C20.3906 6.5625 21.2109 6.26953 21.9727 5.80078C21.6797 6.73828 21.0352 7.44141 20.2734 7.91016C21.0352 7.85156 21.7969 7.61719 22.5 7.32422C21.9727 8.08594 21.2695 8.78906 20.5664 9.31641Z" fill="#757575"/>
</svg>
