<svg width="20" height="20" viewBox="0 0 20 20" fill="none" xmlns="http://www.w3.org/2000/svg">
<path d="M19.375 9.6875C19.375 4.375 15 0 9.6875 0C4.33594 0 0 4.375 0 9.6875C0 15.0391 4.33594 19.375 9.6875 19.375C15 19.375 19.375 15.0391 19.375 9.6875ZM8.55469 14.8438C8.32031 15.0781 7.89062 15.0781 7.65625 14.8438L3.59375 10.7812C3.35938 10.5469 3.35938 10.1172 3.59375 9.88281L4.49219 9.02344C4.72656 8.75 5.11719 8.75 5.35156 9.02344L8.125 11.7578L13.9844 5.89844C14.2188 5.625 14.6094 5.625 14.8438 5.89844L15.7422 6.75781C15.9766 6.99219 15.9766 7.42188 15.7422 7.65625L8.55469 14.8438Z" fill="#757575"/>
</svg>
